<mxfile host="app.diagrams.net" modified="2023-12-05T16:32:25.187Z" agent="Mozilla/5.0 (Macintosh; Intel Mac OS X 10_15_7) AppleWebKit/605.1.15 (KHTML, like Gecko) Version/15.6.1 Safari/605.1.15" etag="qdH4gofwQK51Htas_npe" version="22.1.5" type="github">
  <diagram name="Страница — 1" id="DhTqjkecS1U5kovGu_CZ">
    <mxGraphModel dx="794" dy="477" grid="1" gridSize="10" guides="1" tooltips="1" connect="1" arrows="1" fold="1" page="1" pageScale="1" pageWidth="827" pageHeight="1169" math="0" shadow="0">
      <root>
        <mxCell id="0" />
        <mxCell id="1" parent="0" />
        <mxCell id="Vj0jSJ8QB2PO6li8JB-v-1" value="Backend-for-Frontend&lt;br&gt;BFF" style="ellipse;shape=cloud;whiteSpace=wrap;html=1;fillColor=#e1d5e7;strokeColor=#9673a6;" parent="1" vertex="1">
          <mxGeometry x="13" y="21" width="190" height="90" as="geometry" />
        </mxCell>
        <mxCell id="Vj0jSJ8QB2PO6li8JB-v-3" value="API Gateware" style="rounded=1;whiteSpace=wrap;html=1;fillColor=#d5e8d4;strokeColor=#82b366;" parent="1" vertex="1">
          <mxGeometry x="21" y="134" width="151" height="90" as="geometry" />
        </mxCell>
        <mxCell id="Vj0jSJ8QB2PO6li8JB-v-4" value="&amp;nbsp; Account" style="rounded=1;whiteSpace=wrap;html=1;fillColor=#f5f5f5;fontColor=#333333;strokeColor=#666666;align=left;" parent="1" vertex="1">
          <mxGeometry x="390" y="40" width="144" height="160" as="geometry" />
        </mxCell>
        <mxCell id="Vj0jSJ8QB2PO6li8JB-v-5" value="&amp;nbsp; &amp;nbsp;Blog" style="rounded=1;whiteSpace=wrap;html=1;fillColor=#f5f5f5;fontColor=#333333;strokeColor=#666666;align=left;" parent="1" vertex="1">
          <mxGeometry x="390" y="205" width="144" height="205" as="geometry" />
        </mxCell>
        <mxCell id="Vj0jSJ8QB2PO6li8JB-v-6" value="&lt;div style=&quot;&quot;&gt;&lt;div style=&quot;&quot;&gt;&amp;nbsp; Notify&lt;/div&gt;&lt;/div&gt;" style="rounded=1;whiteSpace=wrap;html=1;fillColor=#f5f5f5;fontColor=#333333;strokeColor=#666666;align=left;" parent="1" vertex="1">
          <mxGeometry x="390" y="505" width="144" height="60" as="geometry" />
        </mxCell>
        <mxCell id="1SYx6RNztKX1Lw-2Ym32-27" style="edgeStyle=orthogonalEdgeStyle;rounded=0;orthogonalLoop=1;jettySize=auto;html=1;exitX=1;exitY=0.5;exitDx=0;exitDy=0;exitPerimeter=0;entryX=1;entryY=0;entryDx=0;entryDy=37.5;entryPerimeter=0;" parent="1" source="Vj0jSJ8QB2PO6li8JB-v-8" target="1SYx6RNztKX1Lw-2Ym32-8" edge="1">
          <mxGeometry relative="1" as="geometry">
            <mxPoint x="810" y="470" as="targetPoint" />
            <Array as="points">
              <mxPoint x="811" y="113" />
              <mxPoint x="811" y="469" />
              <mxPoint x="810" y="469" />
              <mxPoint x="810" y="547" />
            </Array>
          </mxGeometry>
        </mxCell>
        <mxCell id="Vj0jSJ8QB2PO6li8JB-v-8" value="DB Mongo" style="shape=cylinder3;whiteSpace=wrap;html=1;boundedLbl=1;backgroundOutline=1;size=15;fillColor=#dae8fc;strokeColor=#6c8ebf;" parent="1" vertex="1">
          <mxGeometry x="630" y="83" width="100" height="60" as="geometry" />
        </mxCell>
        <mxCell id="Vj0jSJ8QB2PO6li8JB-v-9" value="" style="shape=flexArrow;endArrow=classic;startArrow=classic;html=1;rounded=0;exitX=1;exitY=0.5;exitDx=0;exitDy=0;entryX=0;entryY=0;entryDx=0;entryDy=37.5;entryPerimeter=0;" parent="1" source="Vj0jSJ8QB2PO6li8JB-v-4" target="Vj0jSJ8QB2PO6li8JB-v-8" edge="1">
          <mxGeometry width="100" height="100" relative="1" as="geometry">
            <mxPoint x="530" y="200" as="sourcePoint" />
            <mxPoint x="630" y="100" as="targetPoint" />
          </mxGeometry>
        </mxCell>
        <mxCell id="Vj0jSJ8QB2PO6li8JB-v-10" value="DB Postgre SQL" style="shape=cylinder3;whiteSpace=wrap;html=1;boundedLbl=1;backgroundOutline=1;size=15;fillColor=#dae8fc;strokeColor=#6c8ebf;" parent="1" vertex="1">
          <mxGeometry x="630" y="259" width="100" height="60" as="geometry" />
        </mxCell>
        <mxCell id="Vj0jSJ8QB2PO6li8JB-v-11" value="" style="shape=flexArrow;endArrow=classic;startArrow=classic;html=1;rounded=0;exitX=1;exitY=0.5;exitDx=0;exitDy=0;" parent="1" edge="1">
          <mxGeometry width="100" height="100" relative="1" as="geometry">
            <mxPoint x="534" y="292" as="sourcePoint" />
            <mxPoint x="630" y="292" as="targetPoint" />
          </mxGeometry>
        </mxCell>
        <mxCell id="Vj0jSJ8QB2PO6li8JB-v-12" value="" style="shape=parallelogram;perimeter=parallelogramPerimeter;whiteSpace=wrap;html=1;fixedSize=1;fillColor=#f8cecc;strokeColor=#b85450;" parent="1" vertex="1">
          <mxGeometry x="180" y="150" width="120" height="40" as="geometry" />
        </mxCell>
        <mxCell id="Vj0jSJ8QB2PO6li8JB-v-13" value="" style="shape=parallelogram;perimeter=parallelogramPerimeter;whiteSpace=wrap;html=1;fixedSize=1;fillColor=#ffe6cc;strokeColor=#d79b00;" parent="1" vertex="1">
          <mxGeometry x="190" y="160" width="120" height="40" as="geometry" />
        </mxCell>
        <mxCell id="Vj0jSJ8QB2PO6li8JB-v-14" value="Rabbit MQ" style="shape=parallelogram;perimeter=parallelogramPerimeter;whiteSpace=wrap;html=1;fixedSize=1;fillColor=#f8cecc;strokeColor=#b85450;" parent="1" vertex="1">
          <mxGeometry x="200" y="172" width="120" height="38" as="geometry" />
        </mxCell>
        <mxCell id="E6p5JfcPMgcYve_fgYgA-1" value="HTTP-запрос" style="endArrow=classic;html=1;rounded=0;entryX=0.875;entryY=0.5;entryDx=0;entryDy=0;entryPerimeter=0;" parent="1" target="Vj0jSJ8QB2PO6li8JB-v-1" edge="1">
          <mxGeometry x="-1" y="-40" width="50" height="50" relative="1" as="geometry">
            <mxPoint x="240" y="65" as="sourcePoint" />
            <mxPoint x="430" y="230" as="targetPoint" />
            <mxPoint x="40" y="35" as="offset" />
          </mxGeometry>
        </mxCell>
        <mxCell id="E6p5JfcPMgcYve_fgYgA-10" value="e-mail" style="rounded=1;whiteSpace=wrap;html=1;fillColor=#d5e8d4;strokeColor=#82b366;" parent="1" vertex="1">
          <mxGeometry x="468" y="538" width="57" height="20" as="geometry" />
        </mxCell>
        <mxCell id="E6p5JfcPMgcYve_fgYgA-13" value="Login" style="rounded=1;whiteSpace=wrap;html=1;fillColor=#d5e8d4;strokeColor=#82b366;" parent="1" vertex="1">
          <mxGeometry x="450" y="45" width="73" height="20" as="geometry" />
        </mxCell>
        <mxCell id="E6p5JfcPMgcYve_fgYgA-14" value="JWT" style="rounded=1;whiteSpace=wrap;html=1;fillColor=#d5e8d4;strokeColor=#82b366;" parent="1" vertex="1">
          <mxGeometry x="450" y="114" width="73" height="17" as="geometry" />
        </mxCell>
        <mxCell id="E6p5JfcPMgcYve_fgYgA-15" value="Registration" style="rounded=1;whiteSpace=wrap;html=1;fillColor=#d5e8d4;strokeColor=#82b366;" parent="1" vertex="1">
          <mxGeometry x="450" y="91" width="73" height="20" as="geometry" />
        </mxCell>
        <mxCell id="E6p5JfcPMgcYve_fgYgA-17" style="edgeStyle=orthogonalEdgeStyle;rounded=0;orthogonalLoop=1;jettySize=auto;html=1;entryX=1;entryY=1;entryDx=0;entryDy=-15;entryPerimeter=0;" parent="1" source="Vj0jSJ8QB2PO6li8JB-v-8" target="Vj0jSJ8QB2PO6li8JB-v-10" edge="1">
          <mxGeometry relative="1" as="geometry" />
        </mxCell>
        <mxCell id="E6p5JfcPMgcYve_fgYgA-18" value="Sorting" style="rounded=1;whiteSpace=wrap;html=1;fillColor=#f8cecc;strokeColor=#b85450;" parent="1" vertex="1">
          <mxGeometry x="460" y="263" width="60" height="20" as="geometry" />
        </mxCell>
        <mxCell id="E6p5JfcPMgcYve_fgYgA-19" value="CRUD" style="rounded=1;whiteSpace=wrap;html=1;fillColor=#d5e8d4;strokeColor=#82b366;" parent="1" vertex="1">
          <mxGeometry x="460" y="214" width="60" height="20" as="geometry" />
        </mxCell>
        <mxCell id="E6p5JfcPMgcYve_fgYgA-20" value="Autorization" style="rounded=1;whiteSpace=wrap;html=1;" parent="1" vertex="1">
          <mxGeometry x="30" y="192" width="100" height="23" as="geometry" />
        </mxCell>
        <mxCell id="E6p5JfcPMgcYve_fgYgA-21" value="Pagination" style="rounded=1;whiteSpace=wrap;html=1;fillColor=#f8cecc;strokeColor=#b85450;" parent="1" vertex="1">
          <mxGeometry x="460" y="287" width="60" height="20" as="geometry" />
        </mxCell>
        <mxCell id="E6p5JfcPMgcYve_fgYgA-22" value="Comments" style="rounded=1;whiteSpace=wrap;html=1;fillColor=#d5e8d4;strokeColor=#82b366;" parent="1" vertex="1">
          <mxGeometry x="459" y="312" width="60" height="20" as="geometry" />
        </mxCell>
        <mxCell id="E6p5JfcPMgcYve_fgYgA-23" value="Likes" style="rounded=1;whiteSpace=wrap;html=1;fillColor=#d5e8d4;strokeColor=#82b366;" parent="1" vertex="1">
          <mxGeometry x="459" y="337" width="60" height="20" as="geometry" />
        </mxCell>
        <mxCell id="E6p5JfcPMgcYve_fgYgA-24" value="Public Info" style="rounded=1;whiteSpace=wrap;html=1;fillColor=#d5e8d4;strokeColor=#82b366;" parent="1" vertex="1">
          <mxGeometry x="461" y="239" width="60" height="20" as="geometry" />
        </mxCell>
        <mxCell id="E6p5JfcPMgcYve_fgYgA-25" value="Password" style="rounded=1;whiteSpace=wrap;html=1;fillColor=#d5e8d4;strokeColor=#82b366;" parent="1" vertex="1">
          <mxGeometry x="450" y="68" width="73" height="20" as="geometry" />
        </mxCell>
        <mxCell id="1SYx6RNztKX1Lw-2Ym32-1" value="Subscribe" style="rounded=1;whiteSpace=wrap;html=1;fillColor=#f8cecc;strokeColor=#b85450;" parent="1" vertex="1">
          <mxGeometry x="451" y="134" width="73" height="17" as="geometry" />
        </mxCell>
        <mxCell id="1SYx6RNztKX1Lw-2Ym32-2" value="User Ribbon" style="rounded=1;whiteSpace=wrap;html=1;fillColor=#f8cecc;strokeColor=#b85450;" parent="1" vertex="1">
          <mxGeometry x="450" y="155" width="73" height="17" as="geometry" />
        </mxCell>
        <mxCell id="1SYx6RNztKX1Lw-2Ym32-3" value="Filters" style="rounded=1;whiteSpace=wrap;html=1;fillColor=#f8cecc;strokeColor=#b85450;" parent="1" vertex="1">
          <mxGeometry x="460" y="360" width="60" height="20" as="geometry" />
        </mxCell>
        <mxCell id="1SYx6RNztKX1Lw-2Ym32-4" value="User Info" style="rounded=1;whiteSpace=wrap;html=1;fillColor=#d5e8d4;strokeColor=#82b366;" parent="1" vertex="1">
          <mxGeometry x="452" y="176" width="73" height="17" as="geometry" />
        </mxCell>
        <mxCell id="1SYx6RNztKX1Lw-2Ym32-5" value="Tags" style="rounded=1;whiteSpace=wrap;html=1;fillColor=#d5e8d4;strokeColor=#82b366;" parent="1" vertex="1">
          <mxGeometry x="461" y="384" width="60" height="20" as="geometry" />
        </mxCell>
        <mxCell id="1SYx6RNztKX1Lw-2Ym32-6" value="CRUD" style="rounded=1;whiteSpace=wrap;html=1;fillColor=#d5e8d4;strokeColor=#82b366;" parent="1" vertex="1">
          <mxGeometry x="467" y="512" width="58" height="20" as="geometry" />
        </mxCell>
        <mxCell id="1SYx6RNztKX1Lw-2Ym32-7" value="" style="shape=flexArrow;endArrow=classic;startArrow=classic;html=1;rounded=0;exitX=1;exitY=0.5;exitDx=0;exitDy=0;" parent="1" edge="1">
          <mxGeometry width="100" height="100" relative="1" as="geometry">
            <mxPoint x="534" y="538.5" as="sourcePoint" />
            <mxPoint x="630" y="538.5" as="targetPoint" />
          </mxGeometry>
        </mxCell>
        <mxCell id="1SYx6RNztKX1Lw-2Ym32-8" value="DB Mongo" style="shape=cylinder3;whiteSpace=wrap;html=1;boundedLbl=1;backgroundOutline=1;size=15;fillColor=#dae8fc;strokeColor=#6c8ebf;" parent="1" vertex="1">
          <mxGeometry x="630" y="509" width="100" height="60" as="geometry" />
        </mxCell>
        <mxCell id="1SYx6RNztKX1Lw-2Ym32-12" value="" style="endArrow=classic;startArrow=classic;html=1;rounded=0;exitX=1;exitY=0;exitDx=0;exitDy=0;" parent="1" source="Vj0jSJ8QB2PO6li8JB-v-13" edge="1">
          <mxGeometry width="50" height="50" relative="1" as="geometry">
            <mxPoint x="340" y="160" as="sourcePoint" />
            <mxPoint x="390" y="110" as="targetPoint" />
          </mxGeometry>
        </mxCell>
        <mxCell id="1SYx6RNztKX1Lw-2Ym32-13" value="" style="endArrow=classic;startArrow=classic;html=1;rounded=0;entryX=0;entryY=0.5;entryDx=0;entryDy=0;" parent="1" source="Vj0jSJ8QB2PO6li8JB-v-14" target="Vj0jSJ8QB2PO6li8JB-v-5" edge="1">
          <mxGeometry width="50" height="50" relative="1" as="geometry">
            <mxPoint x="310" y="160" as="sourcePoint" />
            <mxPoint x="400" y="120" as="targetPoint" />
          </mxGeometry>
        </mxCell>
        <mxCell id="1SYx6RNztKX1Lw-2Ym32-14" value="" style="endArrow=classic;startArrow=classic;html=1;rounded=0;entryX=-0.007;entryY=0.633;entryDx=0;entryDy=0;exitX=0.567;exitY=1.079;exitDx=0;exitDy=0;exitPerimeter=0;entryPerimeter=0;" parent="1" source="Vj0jSJ8QB2PO6li8JB-v-14" target="Vj0jSJ8QB2PO6li8JB-v-6" edge="1">
          <mxGeometry width="50" height="50" relative="1" as="geometry">
            <mxPoint x="310" y="189" as="sourcePoint" />
            <mxPoint x="390" y="337" as="targetPoint" />
          </mxGeometry>
        </mxCell>
        <mxCell id="1SYx6RNztKX1Lw-2Ym32-16" value="" style="endArrow=classic;startArrow=classic;html=1;rounded=0;entryX=0.437;entryY=0.922;entryDx=0;entryDy=0;entryPerimeter=0;exitX=0.5;exitY=0;exitDx=0;exitDy=0;" parent="1" source="Vj0jSJ8QB2PO6li8JB-v-3" target="Vj0jSJ8QB2PO6li8JB-v-1" edge="1">
          <mxGeometry width="50" height="50" relative="1" as="geometry">
            <mxPoint x="48" y="319" as="sourcePoint" />
            <mxPoint x="180" y="296" as="targetPoint" />
          </mxGeometry>
        </mxCell>
        <mxCell id="1SYx6RNztKX1Lw-2Ym32-17" value="" style="endArrow=classic;startArrow=classic;html=1;rounded=0;entryX=0;entryY=0.5;entryDx=0;entryDy=0;exitX=1;exitY=0.5;exitDx=0;exitDy=0;" parent="1" source="Vj0jSJ8QB2PO6li8JB-v-3" target="Vj0jSJ8QB2PO6li8JB-v-13" edge="1">
          <mxGeometry width="50" height="50" relative="1" as="geometry">
            <mxPoint x="107" y="144" as="sourcePoint" />
            <mxPoint x="106" y="114" as="targetPoint" />
          </mxGeometry>
        </mxCell>
        <mxCell id="h6MzAH58ZGGVf3mSTBKA-1" value="&lt;div style=&quot;&quot;&gt;&lt;div style=&quot;&quot;&gt;&amp;nbsp;Uploader&lt;/div&gt;&lt;/div&gt;" style="rounded=1;whiteSpace=wrap;html=1;fillColor=#f5f5f5;fontColor=#333333;strokeColor=#666666;align=left;" vertex="1" parent="1">
          <mxGeometry x="390" y="430" width="144" height="60" as="geometry" />
        </mxCell>
        <mxCell id="h6MzAH58ZGGVf3mSTBKA-2" value="CRUD" style="rounded=1;whiteSpace=wrap;html=1;fillColor=#d5e8d4;strokeColor=#82b366;" vertex="1" parent="1">
          <mxGeometry x="470" y="437" width="60" height="20" as="geometry" />
        </mxCell>
        <mxCell id="h6MzAH58ZGGVf3mSTBKA-3" value="Info File" style="rounded=1;whiteSpace=wrap;html=1;fillColor=#d5e8d4;strokeColor=#82b366;" vertex="1" parent="1">
          <mxGeometry x="470" y="460" width="60" height="20" as="geometry" />
        </mxCell>
        <mxCell id="h6MzAH58ZGGVf3mSTBKA-6" value="" style="shape=flexArrow;endArrow=classic;startArrow=classic;html=1;rounded=0;exitX=1;exitY=0.5;exitDx=0;exitDy=0;" edge="1" parent="1" source="h6MzAH58ZGGVf3mSTBKA-1">
          <mxGeometry width="100" height="100" relative="1" as="geometry">
            <mxPoint x="580" y="419" as="sourcePoint" />
            <mxPoint x="680" y="319" as="targetPoint" />
            <Array as="points">
              <mxPoint x="680" y="460" />
            </Array>
          </mxGeometry>
        </mxCell>
      </root>
    </mxGraphModel>
  </diagram>
</mxfile>
